<svg xmlns="http://www.w3.org/2000/svg" viewBox="0 0 640 512"><!--!Font Awesome Free 6.6.0 by @fontawesome - https://fontawesome.com License - https://fontawesome.com/license/free Copyright 2024 Fonticons, Inc.--><path fill="#267abe" d="M32 224H64V416H32A32 32 0 0 1 0 384V256A32 32 0 0 1 32 224zm512-48V448a64.1 64.1 0 0 1 -64 64H160a64.1 64.1 0 0 1 -64-64V176a80 80 0 0 1 80-80H288V32a32 32 0 0 1 64 0V96H464A80 80 0 0 1 544 176zM264 256a40 40 0 1 0 -40 40A40 40 0 0 0 264 256zm-8 128H192v32h64zm96 0H288v32h64zM456 256a40 40 0 1 0 -40 40A40 40 0 0 0 456 256zm-8 128H384v32h64zM640 256V384a32 32 0 0 1 -32 32H576V224h32A32 32 0 0 1 640 256z"/></svg>